<svg xmlns="http://www.w3.org/2000/svg" viewBox="0 0 160.38 201.41"><defs><style>.cls-1{fill:#00b2a9;}.cls-2{fill:#f8ce84;}.cls-3{fill:#fdfcfc;}.cls-4{fill:#005c77;}</style></defs><g id="Capa_2" data-name="Capa 2"><g id="Capa_1-2" data-name="Capa 1"><path class="cls-1" d="M11.25,191.52a12.14,12.14,0,0,1-4.95-5.93c.68-.7,1.3-1.47,2-2.1,5-4.26,10.13-8.45,15.11-12.77,1.31-1.13,3.35-2.27,2.67-4.36-.8-2.46-3.28-1.7-5.15-1.8-3.78-.22-7.55-.2-11.35-.75-3-.43-6.26-1-9.2.75,0-2,0-4.05.07-6.07,8.06,2.28,16.34,2.27,24.59,2.08,3.39-.08,1.61-2,.58-3.22-5.12-5.86-10.22-11.77-15.52-17.47-5.14-5.52-5.33-5.41-9.65.71,0-3.4,0-6.8.05-10.2.64-.52,1.34-1,1.92-1.56,19.36-19,50.33-13.6,64.78,4.71-1.24,1.69-2.47,3.38-3.71,5.06-3.93-4.75-6.93-2.72-10.09,1.1-1.63,2-4,3.37-6,5l-.48-.5c1-4.22,4.11-7.17,6.65-10.32s.58-3.93-1.53-5.14c-2.4-1.38-5.12-2.84-6.57.84-3,7.69-5.69,15.51-8.5,23.28-.5,1.38-1.45,3-.17,4.18,1.48,1.35,3.14.15,4.59-.54,6.28-3,12.53-6,18.8-9l-1.11,7.16c-6.06,1.6-12.12,3.15-18.16,4.8-3.11.85-3.5,2.61-.76,4.28,5.78,3.52,11.74,6.74,17.61,10.12,1.76,1,2.37.11,2.64-1.47l2.73,11.16c-2-1.23-4-2.41-5.89-3.71-5.89-4-11.74-8.08-17.66-12.05-.89-.59-1.94-1.51-3.19-.75-1,.63-.85,1.6-.63,2.64,1.93,8.88,3.6,17.83,5.79,26.64.94,3.8,4.2,2.25,6.63,1.56s3.44-2,2-4.77c-1.93-3.64-4.37-7.07-5.24-11.22l.46-.57c1.17,1.15,2.43,2.21,3.49,3.44,7.76,9,7.74,9,14.58-.43a15.65,15.65,0,0,1,2.74,6.18c-2.71,3.17-5,6.67-9.32,10.21,5.7-.88,10.13.89,14.36-1.22.89,1,.78,1.9-.7,1.87-13.49-.27-27,.51-40.46-.58,1.59-.71,4.46.41,4.26-2.87-.5-8.44-1-16.89-1.64-25.32-.09-1.19-.1-3-1.57-3.44s-2.29,1.13-3.08,2.06C22.43,178,16.85,184.75,11.25,191.52Zm17.08-49-1.1.24c-1.46-4.68-3.17-9.29-4.3-14-1.1-4.58-3.66-3.17-6.36-2.11-3,1.14-3.8,2.86-1.94,5.72,4.63,7.1,9.14,14.26,13.73,21.38.69,1.08,1.38,2.61,2.88,2.36s1.7-1.9,1.95-3.17c1.39-7.15,2.76-14.31,4.06-21.47,1.22-6.7.32-7.64-6.51-7.83-3.32-.09-4.86.37-3.94,4.45C27.86,132.77,27.87,137.71,28.33,142.54Z"/><path class="cls-1" d="M17.36,196.5c2.84.09,2.76-2.43,3.56-4.08,1.65-3.37,3.17-6.8,5.06-10.09,0,5.71-1.78,11-3,16.45C21,198.35,19,198,17.36,196.5Z"/><path class="cls-1" d="M13.2,152.67c-4.46-.17-8-4-12.77-3.08,0-2.35,0-4.71,0-7.06,3.65,4.18,9.39,5.59,13,9.79Z"/><path class="cls-1" d="M.66,170.44c2.69,2.37,5.27-.33,7.93-.25,1.53.05,3.08-1.06,4.74-.42-3.13,3.39-9.32,2.4-11.07,7.76A14.2,14.2,0,0,1,.66,170.44Z"/><path class="cls-2" d="M.47,166.5a4.4,4.4,0,0,1,.31.75c0,.08-.2.21-.31.31Z"/><path class="cls-1" d="M88.2,137.51c6.07,0,10.54,2.78,10.78,6.74s-4.57,7.74-10.39,8.19c-6.86.52-12-2.28-12.19-6.68S81.58,137.53,88.2,137.51Z"/><path class="cls-3" d="M53.48,75.66c-1.64-.1-3-.78-3-2.54,0-2.07,1.55-2.75,3.37-2.69,1.59,0,3.19.65,3.07,2.46A2.88,2.88,0,0,1,53.48,75.66Z"/><path class="cls-3" d="M83.32,82.07a2.75,2.75,0,0,1-2.69,3.16c-1.71.12-3.26-.67-3.34-2.73A2.6,2.6,0,0,1,80,79.65C81.85,79.5,83.11,80.34,83.32,82.07Z"/><path class="cls-3" d="M39.87,81.77c1.85.41,3.36,1.21,3.31,3.18,0,1.8-1.64,2.42-3.16,2.52A3,3,0,0,1,36.76,85C36.44,82.84,38.5,82.51,39.87,81.77Z"/><path class="cls-3" d="M66.23,91a3,3,0,0,1-2.7,3.14,2.71,2.71,0,0,1-3.36-2.77c0-1.79,1.13-2.71,2.86-2.78A2.77,2.77,0,0,1,66.23,91Z"/><path class="cls-3" d="M84.14,100.18a2.87,2.87,0,0,1-3.21,2.42c-1.82-.1-3.35-1.06-3.28-2.92.08-2.09,1.93-2.38,3.67-2.25A2.71,2.71,0,0,1,84.14,100.18Z"/><path class="cls-1" d="M104.88,37.23c-.55.5-1,1.56-1.91.57-4.22-4.45-10-5-15.49-6C78.73,30.17,72.77,25.58,69.72,17c-1.42-4-.09-4.79,3.47-5.14,15.27-1.53,26.18,6.24,29.6,21.21.28,1.2-.19,2.78,1.39,3.49A9,9,0,0,1,104.88,37.23Z"/><path class="cls-4" d="M127.36,133.42c7.61-.51,14.28-4.6,21.82-5.58,9.14-1.19,9.11-1.43,9.11,7.61,0,10.15-.16,20.31,0,30.46.36,19.18-15.72,36.18-35.37,35.15-13.11-.69-26.29-.14-39.43-.12-2.2,0-4.15,0-5.57-2.27-9-14.51-14.62-29.91-11.88-47.25,2.33-14.75,10.67-20,22.78-22.81,7.59-1.76,15.25-.69,22.88,2a69.73,69.73,0,0,0,11.72,2.54ZM88.2,137.51c-6.62,0-12,3.79-11.8,8.25s5.33,7.2,12.19,6.68c5.82-.45,10.62-4.24,10.39-8.19S94.27,137.49,88.2,137.51Z"/><path class="cls-4" d="M16.32,49.06C22.35,45.3,28,43.61,34,43.6c30.29-.06,60.58-.23,90.86.06,18.47.18,33,15.12,33.4,33.57.11,5.32-.09,10.65.07,16,.07,2.55-.67,3.53-3.36,3.42-8.06-.32-15.58,1.35-21.71,7-2,1.79-3.32.56-4.79-.47-2.82-2-5.5-3.06-9.25-1.85s-5.94-2.9-9-4.23c-1.33-.57.4-2,1-2.81,2.7-3.79,5.5-7.51,8.26-11.26,5.73-7.8,3.52-14.2-5.9-16C94.61,63.37,75.62,60.08,56.68,56.6,43.61,54.2,30.57,51.72,16.32,49.06Z"/><path class="cls-1" d="M24.46,78.84a100,100,0,0,1,.8-15.64c.65-6.11.75-6.4,6.88-5.26Q48,60.88,63.91,63.88q23.45,4.4,46.9,8.8c6.3,1.17,6.9,2.55,3.18,7.58C104.7,92.81,95.38,105.34,86.18,118c-2,2.68-3,3.79-6.21.8-13.59-12.82-30.17-18.38-48.66-18-4.28.07-5.6-1.59-5.81-5.23C25.16,89.68,23.72,84,24.46,78.84Zm29-3.18a2.88,2.88,0,0,0,3.4-2.77c.12-1.81-1.48-2.41-3.07-2.46-1.82-.06-3.39.62-3.37,2.69C50.46,74.88,51.84,75.56,53.48,75.66Zm29.84,6.41c-.21-1.73-1.47-2.57-3.34-2.42a2.6,2.6,0,0,0-2.69,2.85c.08,2.06,1.63,2.85,3.34,2.73A2.75,2.75,0,0,0,83.32,82.07Zm-43.45-.3c-1.37.74-3.43,1.07-3.11,3.2A3,3,0,0,0,40,87.47c1.52-.1,3.11-.72,3.16-2.52C43.23,83,41.72,82.18,39.87,81.77ZM66.23,91A2.77,2.77,0,0,0,63,88.62c-1.73.07-2.9,1-2.86,2.78a2.71,2.71,0,0,0,3.36,2.77A3,3,0,0,0,66.23,91Zm17.91,9.15a2.71,2.71,0,0,0-2.82-2.75c-1.74-.13-3.59.16-3.67,2.25-.07,1.86,1.46,2.82,3.28,2.92A2.87,2.87,0,0,0,84.14,100.18Z"/><path class="cls-1" d="M104.18,36.55c3.3-22.71,19.71-39.22,44.87-36.19l.49,0c12.4,1.61,13.55-.52,6.55,13.19-5.2,10.18-14.43,14.61-25.37,16.15-9,1.26-18.38,1-25.84,7.48A9,9,0,0,0,104.18,36.55Z"/><path class="cls-1" d="M127.36,133.42l-3.91-.26c.65-5-1.59-6.12-6.44-6a26.77,26.77,0,0,1-19.81-7.94c-1.69-1.64-2.11-3.06-.39-5a41.19,41.19,0,0,0,5.56-7.64c2.65-5.15,5.71-4.11,9.44-1.43a31.12,31.12,0,0,1,9.83,11.09c1.45-3.23-.29-6.31.49-9.7,3.52,2.51,8.65,2.84,8,10.06,6.07-9.84,14-14.28,24.5-14,2.74.06,3.65.67,3.72,3.58.39,14.94-7.79,22.45-25.18,22.33C129.25,128.41,127.13,129.24,127.36,133.42Z"/><path class="cls-4" d="M67.24,133.54c-14.45-18.31-45.42-23.66-64.78-4.71-.58.57-1.28,1-1.92,1.56a28.28,28.28,0,0,0-.2-5c-1.55-7.43,2.31-11,8.63-13.75,22.71-10,53-4.21,68.87,13.76A58.16,58.16,0,0,0,67.24,133.54Z"/><path class="cls-4" d="M.32,109.32c.52-12.9-.76-25,.76-37.12.7-5.56,3.31-10.32,6.22-15s6.63-2.27,10.15-1.57c3.76.74,2,3.77,1.83,5.67-.87,12.63-1.72,25.23,1,37.75.36,1.66.06,2.94-1.92,3.31C12.28,103.51,6.73,106.11.32,109.32Z"/><path class="cls-4" d="M45,181.91c.87,4.15,3.31,7.58,5.24,11.22,1.46,2.76.49,4.07-2,4.77s-5.69,2.24-6.63-1.56c-2.19-8.81-3.86-17.76-5.79-26.64-.22-1-.39-2,.63-2.64,1.25-.76,2.3.16,3.19.75,5.92,4,11.77,8.05,17.66,12.05,1.92,1.3,3.92,2.48,5.89,3.71a3.29,3.29,0,0,1,.32.78c-6.84,9.47-6.82,9.45-14.58.43-1.06-1.23-2.32-2.29-3.49-3.44-.38-.51-1.07-1-1.44-.45S44.56,181.62,45,181.91Z"/><path class="cls-4" d="M47.44,144.72c2-1.65,4.37-3.05,6-5,3.16-3.82,6.16-5.85,10.09-1.1l-3.3,8.92c-6.27,3-12.52,6-18.8,9-1.45.69-3.11,1.89-4.59.54-1.28-1.19-.33-2.8.17-4.18,2.81-7.77,5.49-15.59,8.5-23.28,1.45-3.68,4.17-2.22,6.57-.84,2.11,1.21,4,2.09,1.53,5.14S48,140,47,144.22c-.31.37-.63.73-.94,1.09s-.76.5-.18.9c0,0,.37-.33.57-.51Z"/><path class="cls-4" d="M11.25,191.52c5.6-6.77,11.18-13.56,16.84-20.28.79-.93,1.55-2.53,3.08-2.06s1.48,2.25,1.57,3.44c.66,8.43,1.14,16.88,1.64,25.32.2,3.28-2.67,2.16-4.26,2.87-2.5-.23-5-.4-7.11-2,1.19-5.43,3-10.74,3-16.45-1.89,3.29-3.41,6.72-5.06,10.09-.8,1.65-.72,4.17-3.56,4.08C15.17,195,12.71,193.89,11.25,191.52Z"/><path class="cls-4" d="M.49,140.59c4.32-6.12,4.51-6.23,9.65-.71,5.3,5.7,10.4,11.61,15.52,17.47,1,1.17,2.81,3.14-.58,3.22-8.25.19-16.53.2-24.59-2.08l-.06-8.9c4.73-.93,8.31,2.91,12.77,3.08.36.51,1,1.06,1.36.48s-.63-.6-1.06-.83c-3.64-4.2-9.38-5.61-13-9.79Z"/><path class="cls-4" d="M.42,164.56c2.94-1.77,6.21-1.18,9.2-.75,3.8.55,7.57.53,11.35.75,1.87.1,4.35-.66,5.15,1.8.68,2.09-1.36,3.23-2.67,4.36-5,4.32-10.08,8.51-15.11,12.77-.74.63-1.36,1.4-2,2.1-2.11-2.31-3.15-5.15-4-8.06,1.75-5.36,7.94-4.37,11.07-7.76-1.66-.64-3.21.47-4.74.42-2.66-.08-5.24,2.62-7.93.25-.06-1-.13-1.92-.19-2.88.11-.1.33-.23.31-.31a4.4,4.4,0,0,0-.31-.75Z"/><path class="cls-4" d="M60.45,172.41c-.27,1.58-.88,2.48-2.64,1.47-5.87-3.38-11.83-6.6-17.61-10.12-2.74-1.67-2.35-3.43.76-4.28,6-1.65,12.1-3.2,18.16-4.8C59.63,160.59,58.05,166.65,60.45,172.41Z"/><path class="cls-4" d="M71.28,199.52c-4.23,2.11-8.66.34-14.36,1.22,4.31-3.54,6.61-7,9.32-10.21Z"/><path class="cls-4" d="M28.33,142.54c-.46-4.83-.47-9.77-1.53-14.47-.92-4.08.62-4.54,3.94-4.45,6.83.19,7.73,1.13,6.51,7.83-1.3,7.16-2.67,14.32-4.06,21.47-.25,1.27-.44,2.92-1.95,3.17s-2.19-1.28-2.88-2.36c-4.59-7.12-9.1-14.28-13.73-21.38-1.86-2.86-1-4.58,1.94-5.72,2.7-1.06,5.26-2.47,6.36,2.11,1.13,4.75,2.84,9.36,4.3,14Z"/><path class="cls-1" d="M45,181.91c-.41-.29-1.44-.3-1-1s1.06-.06,1.44.45Z"/><path class="cls-1" d="M46,145.31c.31-.36.63-.72.94-1.09.15.17.31.33.47.5l-1,1Z"/><path class="cls-1" d="M46.42,145.7c-.2.18-.52.55-.57.51-.58-.4-.12-.64.18-.9Z"/><path class="cls-1" d="M13.5,152.32c.43.23,1.45.11,1.06.83s-1,0-1.36-.48Z"/></g></g></svg>